<svg xmlns="http://www.w3.org/2000/svg" viewBox="0 0 678 452"><defs><style>.cls-1{fill:#b5cbb5;}.cls-2{fill:#8db0bd;}.cls-3{fill:#e6e7e8;}.cls-4{fill:#929497;}</style></defs><g id="Layer_2" data-name="Layer 2"><g id="Layer_1-2" data-name="Layer 1"><rect class="cls-1" width="678" height="452"/><path class="cls-2" d="M433.77,197.94c-113.66,8-139.77-56.88-236-58.81-69-1.37-144,31.83-197.8,66.39V136.4c37-28.25,141.19-76,230.88-60.2C296.43,87.74,331.4,142.78,418,142.78,494,142.78,558.09,78,562.7,0h41.79C604.49,62.56,574.75,188,433.77,197.94Z"/><path class="cls-3" d="M562.7,152.77l-9.3,32.52L519,192l-12.79,2-38-79.33C496,95.74,501.54,58.35,501.54,58.35L407.73,38.93H289.5V77.76l60.6,4.15s21.7,43.29,81.64,43.29c13.13,0,23.85-3.21,32.6-8.22l37.25,77.65-84.34,13-79.44-5.87,2.58,13.65-36.05,31.13-.79-.55-24.39-59.63L230.88,181,128.16,219.09,40.31,302.37v47.68H315l47.65,31.2v58.82h59.56v-64.7l-71.41-52.06-13-25-6.41-32.6-23.3-16.55,33.25-28.72,14.7,77.87,51.68,38,18.32-13,120.1,43.45,21.16-72,40.23,3.6,31.74-124.59Z"/><polygon class="cls-4" points="420.59 108.11 456.04 108.11 456.04 102.78 452.59 102.78 452.59 77.99 459.81 77.99 459.81 58.54 447.88 58.54 447.88 55.72 433.77 55.72 433.77 58.85 426.55 58.85 426.55 67.95 420.59 67.95 420.59 55.72 407.73 55.72 407.73 63.56 412.12 63.56 412.12 68.27 407.73 68.27 407.73 83.95 414.94 83.95 420.9 83.95 420.59 108.11"/><path class="cls-4" d="M484,320.7l8.39-11.06s-7.62-14.71-13.72-18.79S458.08,286,458.08,286v2.67l-29-7.24-3.05,21.35,45,10.67Z"/><polygon class="cls-4" points="506.12 313.83 501.54 331.75 501.54 343.95 524.04 348.15 527.09 334.8 510.31 330.99 512.98 320.7 532.81 324.89 528.61 348.15 534.71 350.05 540.81 325.27 551.11 325.27 551.11 318.03 546.15 317.65 546.15 309.26 542.72 304.3 545.01 294.39 526.33 290.85 522.89 305.83 515.27 304.68 514.89 309.26 508.79 308.88 506.12 313.83"/><polygon class="cls-4" points="553.01 258.55 549.58 276.09 580.85 281.43 585.04 265.41 553.01 258.55"/><polygon class="cls-4" points="546.15 248.25 599.91 261.6 607.54 233.38 596.1 230.34 593.81 241.01 551.11 230.34 546.15 248.25"/><polygon class="cls-4" points="567.31 184.2 574.75 188.01 607.54 195.64 617.07 195.64 620.12 192.59 621.64 176.19 571.7 166.28 567.31 184.2"/><polygon class="cls-4" points="553.4 220.8 580.47 228.43 585.04 208.6 557.59 201.74 553.4 220.8"/><polygon class="cls-4" points="616.69 211.65 614.02 224.24 601.44 221.57 592.28 220.04 592.28 216.33 583.83 213.86 585.04 204.22 616.69 211.65"/><polygon class="cls-4" points="481.9 242.06 513.7 249.47 519 225.8 486.85 219.09 481.9 242.06"/><polygon class="cls-4" points="474.13 219.09 474.13 240.29 438.1 240.29 438.1 235.7 431.74 236.05 431.74 228.43 439.86 228.43 439.51 221.21 441.98 221.21 442.33 214.23 445.87 214.23 446.22 219.09 474.13 219.09"/><rect class="cls-4" x="426.14" y="243.89" width="24.77" height="24.77" transform="translate(60.78 -83.27) rotate(11.65)"/><path class="cls-4" d="M388.28,310.59l15.55,12.72,13.42-15.19-29-26.69-13.07,15.38,3.18,1.77s15.9-3.53,17.84-.35S388.28,310.59,388.28,310.59Z"/><rect class="cls-4" x="399" y="219.09" width="34.62" height="5.3"/><rect class="cls-4" x="359.22" y="227.13" width="34.62" height="5.3" transform="translate(-62.34 185.45) rotate(-25.63)"/><polygon class="cls-4" points="296.43 64.7 321.51 64.7 321.51 68.59 331.4 68.59 331.4 53.05 325.4 53.05 325.4 48.1 296.43 48.1 296.43 64.7"/><polygon class="cls-4" points="118.46 259.03 121.33 269.38 104.5 273.47 64.46 306.23 58.09 298.5 99.49 264.37 118.46 259.03"/><polygon class="cls-4" points="128.16 265.74 166.37 265.74 166.37 259.03 153.18 259.03 153.18 243.9 144.99 243.9 144.99 259.03 128.16 259.03 128.16 265.74"/><polygon class="cls-4" points="184.13 254.82 184.13 248.05 173.16 248.05 173.16 259.03 188.56 259.03 188.56 265.8 199.54 265.8 199.54 254.82 184.13 254.82"/><polygon class="cls-4" points="197.8 216.98 186.82 216.98 186.82 230.98 177.35 230.98 177.35 224.29 166.37 224.29 166.37 235.26 180.16 235.26 180.16 241.96 191.14 241.96 191.14 227.96 197.8 227.96 197.8 216.98"/><polygon class="cls-4" points="211.89 219.09 227.93 219.09 227.93 207.99 230.88 207.99 230.88 199.48 208.62 199.48 208.62 209.28 211.89 209.28 211.89 219.09"/><polygon class="cls-4" points="236.12 219.09 271.14 219.09 271.14 191.95 263.29 191.95 263.29 210.94 236.12 210.94 236.12 219.09"/><rect class="cls-4" x="275.07" y="227.26" width="8.18" height="29.02"/><polygon class="cls-4" points="215.5 268.55 244.63 268.55 244.63 262.66 267.54 262.66 267.54 252.18 240.05 252.18 240.05 256.92 215.5 256.92 215.5 268.55"/><polygon class="cls-4" points="283.26 279.03 306.17 279.03 306.17 294.74 320.11 294.74 320.11 279.03 323.85 279.03 323.85 267.24 283.26 267.24 283.26 279.03"/><polygon class="cls-4" points="315.01 301.06 315.01 330.75 322.21 330.75 322.21 320.7 335.96 320.7 335.96 313.4 322.21 313.4 322.21 301.06 315.01 301.06"/><polygon class="cls-4" points="268.85 294.74 268.85 278.04 260.34 278.04 260.34 318.64 268.85 318.64 268.85 301.06 275.07 301.06 275.07 294.74 268.85 294.74"/><polygon class="cls-4" points="273.75 323.75 260.02 323.75 260.02 330.75 293.4 330.75 293.4 323.75 278.95 323.75 278.95 318.64 273.75 318.64 273.75 323.75"/><polygon class="cls-4" points="376.54 390.81 376.54 426.1 411.93 426.1 411.93 408.45 402.37 408.45 402.37 390.81 407.73 390.81 407.73 381.25 390.61 381.25 390.61 390.07 376.54 390.81"/></g></g></svg>